<?xml version="1.0" encoding="UTF-8"?><svg id="Layer_2" xmlns="http://www.w3.org/2000/svg" viewBox="0 0 761.96 121.73"><defs><style>.cls-1{fill:none;}.cls-2{fill:#f6c2ff;}.cls-3{fill:#fffdeb;}.cls-4{fill:#ffd7e7;}.cls-5{fill:#fbe9ff;}.cls-6{fill:#a4f6ff;}.cls-7{fill:#c2fff6;}.cls-8{fill:#c7c2f9;}</style></defs><g id="Layer_1-2"><g><g><g><path class="cls-6" d="M369.98,57c-31.95,5.88-36.71,10.65-42.6,42.6-5.88-31.95-10.65-36.71-42.6-42.6,31.95-5.88,36.71-10.65,42.6-42.6,5.88,31.95,10.65,36.71,42.6,42.6Z"/><path class="cls-7" d="M327.39,14.41V99.6c5.88-31.95,10.65-36.71,42.6-42.6-31.95-5.88-36.71-10.65-42.6-42.6Z"/><path class="cls-8" d="M327.39,14.41V57h42.6c-31.95-5.88-36.71-10.65-42.6-42.6Z"/></g><g><path class="cls-2" d="M361.67,51.34c-31.95,5.88-36.71,10.65-42.6,42.6-5.88-31.95-10.65-36.71-42.6-42.6,31.95-5.88,36.71-10.65,42.6-42.6,5.88,31.95,10.65,36.71,42.6,42.6Z"/><path class="cls-5" d="M319.2,8.74V93.93c5.88-31.95,10.65-36.71,42.6-42.6-31.95-5.88-36.71-10.65-42.6-42.6Z"/><path class="cls-3" d="M276.48,51.34h85.19c-31.95-5.88-36.71-10.65-42.6-42.6-5.88,31.95-10.65,36.71-42.6,42.6Z"/><path class="cls-4" d="M319.2,8.74V51.34h42.6c-31.95-5.88-36.71-10.65-42.6-42.6Z"/></g></g><g><path class="cls-1" d="M430.53,35.69v30.72h2.4c3.23,0,7.34,1.74,8.76,9.96v-17.87c-3.19-1.06-6.96-4.32-6.96-13.8,0-3.19,.61-6.44,1.82-9.67,.08-.22,.17-.41,.25-.61-1.49,1.02-3.05,1.28-4.23,1.28h-2.04Z"/><path class="cls-3" d="M432.93,66.41h-2.4v-30.72h2.04c1.18,0,2.74-.25,4.23-1.28,1-2.48,2.29-4.25,3.68-5.51,.32-.99,.58-2.1,.77-3.4,.37-2,.56-4.06,.56-6.14s-.19-4.13-.56-6.14c-1.28-8.86-5.98-10.18-8.68-10.18h-40.32c-3.26,0-7.43,1.77-8.8,10.2l-.02,.11c-.28,1.95-.42,3.97-.42,6.01s.14,4.06,.42,6.01l.02,.11c1.37,8.43,5.54,10.2,8.8,10.2h2.52v30.72h-2.28c-2.7,0-7.4,1.33-8.68,10.18-.37,2-.56,4.06-.56,6.14s.19,4.14,.56,6.14c1.28,8.86,5.98,10.18,8.68,10.18h40.44c3.23,0,7.35-1.74,8.76-9.96v-12.72c-1.41-8.22-5.53-9.96-8.76-9.96Zm3.94,23.16c-.56,3.44-1.52,5.16-2.88,5.16h-40.44c-.86,0-1.54-.68-2.04-2.04-.83-.67-1.43-2.26-1.78-4.8-.32-1.68-.48-3.4-.48-5.16s.16-3.48,.48-5.16c.48-3.44,1.4-5.16,2.76-5.16h8.28V31.37h-7.46c-.87,0-1.57-.71-2.11-2.1-.82-.69-1.43-2.26-1.83-4.74-.24-1.68-.36-3.4-.36-5.16s.12-3.48,.36-5.16c.49-3.03,1.3-4.72,2.41-5.08,.44-.64,.94-.98,1.53-.98h40.32c1.36,0,2.28,1.72,2.76,5.16,.32,1.68,.48,3.4,.48,5.16,0,.43-.01,.86-.03,1.29,.02,.43,.03,.86,.03,1.29,0,1.76-.16,3.48-.48,5.16-.48,3.44-1.4,5.16-2.76,5.16h-8.04v19.27h.26v16.19h-.26v5.58h7.34c.87,0,1.57,.71,2.11,2.1,.82,.69,1.43,2.26,1.83,4.74,.32,1.68,.48,3.4,.48,5.16s-.16,3.48-.48,5.16Z"/><path class="cls-3" d="M390.07,21.05c0-.43,.03-.86,.04-1.29-.01-.43-.04-.85-.04-1.29,0-1.76,.12-3.48,.36-5.16,.32-1.96,.77-3.34,1.35-4.18-1.12,.36-1.92,2.05-2.41,5.08-.24,1.68-.36,3.4-.36,5.16s.12,3.48,.36,5.16c.4,2.47,1.01,4.04,1.83,4.74-.31-.8-.57-1.81-.77-3.06-.24-1.68-.36-3.4-.36-5.16Z"/><path class="cls-3" d="M390.31,84.41c0-1.76,.16-3.48,.48-5.16,.48-3.44,1.4-5.16,2.76-5.16h8.28V31.37h-1.06v41.04h-8.28c-1.36,0-2.28,1.72-2.76,5.16-.32,1.68-.48,3.4-.48,5.16s.16,3.48,.48,5.16c.35,2.54,.95,4.13,1.78,4.8-.3-.8-.54-1.84-.72-3.12-.32-1.68-.48-3.4-.48-5.16Z"/><path class="cls-3" d="M433.99,74.09c.38,0,.73,.15,1.05,.42-.54-1.4-1.24-2.1-2.11-2.1h-7.34v1.68h8.4Z"/><path class="cls-3" d="M529.65,49.02c-.32-1.5-.48-3.32-.48-5.52,0-1.82,.35-3.74,1.04-5.8-5.39-9.94-15.23-11.84-21.92-11.84-5.71,0-10.86,1.37-15.38,4.09-4.15-2.71-9.11-4.09-14.79-4.09s-11.01,1.56-15.89,4.64c-.75-.53-1.59-1.06-2.51-1.58-3.58-2.03-7.38-3.06-11.3-3.06-1.69,0-5,.41-7.93,3.05-1.39,1.26-2.69,3.03-3.68,5.51-.08,.21-.17,.4-.25,.61-1.21,3.23-1.82,6.48-1.82,9.67,0,9.49,3.77,12.74,6.96,13.8v33.72c0,5.17,4.89,6.57,7.8,6.94,1.98,.25,4.75,.38,8.46,.38s6.43-.11,8.39-.34c3.53-.41,5.52-1.64,6.61-3.03,1.12,1.33,3.1,2.46,6.56,2.83,1.94,.2,4.66,.3,8.32,.3s6.29-.08,8.18-.23c3.72-.3,5.8-1.48,6.91-2.93,1.12,1.34,3.1,2.49,6.58,2.85,1.94,.2,4.66,.3,8.32,.3s6.29-.08,8.18-.23c6.67-.55,8.08-3.9,8.08-6.61V57.23c-1.83-1.42-3.56-3.91-4.44-8.22Zm-.24,17.82h-.26v27.3c0,.56-3.42,.84-10.26,.84s-10.26-.36-10.26-1.08v-1.1c-.71-.16-1.06-.35-1.06-.58V57.29c0-1.42-.17-2.58-.51-3.49-.62-.55-1.41-.83-2.39-.83-1.38,0-3.14,.82-5.27,2.45v11.41h-.26v27.3c0,.56-3.42,.84-10.26,.84s-10.26-.36-10.26-1.08v-1.1c-.71-.16-1.06-.35-1.06-.58V57.29c0-1.42-.17-2.58-.51-3.49-.62-.55-1.41-.83-2.39-.83-1.31,0-3.03,.82-5.15,2.45v11.41h-.26v27.18c0,.8-3.42,1.2-10.26,1.2s-10.26-.44-10.26-1.32v-.97c-.71-.19-1.06-.43-1.06-.71V54.65h-1.94c-1.44,0-2.49-.83-3.14-2.48-1.25-1.18-1.88-3.67-1.88-7.48,0-2.48,.48-5,1.44-7.56,.75-2.06,1.78-3.5,3.08-4.35,1.14-1.21,2.54-1.83,4.23-1.83,2.88,0,5.66,.76,8.34,2.28,2.68,1.52,4.3,2.96,4.86,4.32,4.96-4.4,10.46-6.6,16.5-6.6s10.9,1.88,14.58,5.64c4.32-3.76,9.52-5.64,15.6-5.64,11.92,0,18.44,6.58,19.59,19.69h.17c.19,1.69,.29,3.48,.29,5.4v10.79Z"/><path class="cls-3" d="M441.83,45.42c-.03-.51-.05-1.05-.05-1.62,0-2.48,.48-5,1.44-7.56,.53-1.46,1.21-2.6,2.01-3.45-1.3,.85-2.33,2.29-3.08,4.35-.96,2.56-1.44,5.08-1.44,7.56,0,3.8,.63,6.29,1.88,7.48-.54-1.37-.82-3.3-.82-5.8,0-.32,.03-.64,.05-.96Z"/><path class="cls-3" d="M508.63,58.97c0-2.52-.53-4.24-1.57-5.17,.33,.92,.51,2.07,.51,3.49v34.92c0,.23,.36,.42,1.06,.58V58.97Z"/><path class="cls-3" d="M448.75,54.65h-1.06v37.56c0,.28,.36,.52,1.06,.71V54.65Z"/><path class="cls-3" d="M478.63,58.97c0-2.52-.53-4.24-1.57-5.17,.33,.92,.51,2.07,.51,3.49v34.92c0,.23,.36,.42,1.06,.58V58.97Z"/><path class="cls-3" d="M590.71,86.87c-4.48,5.56-10.16,8.34-17.04,8.34-3.12,0-5.96-.16-8.52-.48v21.84c0,.56-3.42,.84-10.26,.84s-10.26-.28-10.26-.84v-1.23c-.71-.12-1.06-.27-1.06-.45V54.77h-3.02c-1.35,0-2.39-.89-3.15-2.62-.83-.86-1.45-2.29-1.87-4.34-.24-1.12-.36-2.56-.36-4.32s.56-3.84,1.68-6.24c.8-1.76,1.85-3.09,3.13-3.97,1.47-1.47,3.34-2.21,5.61-2.21s4.46,.54,6.42,1.62c1.96,1.08,3.32,2.08,4.08,3,.76,.92,1.14,1.46,1.14,1.62,5.36-4.16,11.16-6.24,17.4-6.24s11.6,2.42,16.08,7.26c2.82,3.05,4.76,7.16,5.8,12.31h.04c.71,3.09,1.08,6.59,1.12,10.47,1.02-2.17,2.42-4.27,4.35-6.14-.9-8.4-3.56-15.05-7.97-19.82-5.64-6.09-12.53-9.18-20.48-9.18-5.8,0-11.33,1.48-16.48,4.42-.92-.68-1.99-1.36-3.25-2.05-2.85-1.57-5.98-2.36-9.31-2.36-5.9,0-10.56,3.12-13.12,8.74-.48,1.03-.87,2.02-1.2,2.98-.69,2.06-1.04,3.97-1.04,5.8,0,2.2,.16,4.03,.48,5.52,.88,4.31,2.61,6.79,4.44,8.22,1.19,.93,2.42,1.41,3.48,1.65v56.01c0,2.71,1.4,6.06,8.07,6.61,1.89,.16,4.57,.23,8.19,.23s6.29-.08,8.19-.23c6.67-.55,8.07-3.9,8.07-6.61v-15.39c.82,.02,1.66,.03,2.52,.03,8.75,0,16.06-3.56,21.71-10.58,1.17-1.45,2.2-3.03,3.12-4.72-.94-2.11-1.59-4.32-1.94-6.65-1.12,3.58-2.7,6.69-4.78,9.28Z"/><path class="cls-3" d="M568.34,75.77h1.98c3.28-.32,4.92-4.52,4.92-12.6,0-2.88-.38-5.15-1.13-6.81-1.01-1.14-2.35-1.71-4.05-1.71-1.27,0-2.51,.4-3.7,1.17v11.01h-.26v8.81c.88,.08,1.63,.13,2.24,.13Z"/><path class="cls-3" d="M536.23,45.17c0-.24,.04-.5,.06-.74-.03-.57-.06-1.17-.06-1.84,0-1.76,.56-3.84,1.68-6.24,.57-1.25,1.26-2.26,2.07-3.07-1.28,.88-2.33,2.2-3.13,3.97-1.12,2.4-1.68,4.48-1.68,6.24s.12,3.2,.36,4.32c.42,2.05,1.05,3.48,1.87,4.34-.32-.74-.6-1.61-.81-2.66-.24-1.12-.36-2.56-.36-4.32Z"/><path class="cls-3" d="M570.32,75.77h-1.98c-.61,0-1.36-.04-2.24-.13v1.57c1.36,.16,2.46,.24,3.3,.24h1.98c3.28-.32,4.92-4.52,4.92-12.6,0-4.02-.73-6.84-2.19-8.49,.75,1.66,1.13,3.92,1.13,6.81,0,8.08-1.64,12.28-4.92,12.6Z"/><path class="cls-3" d="M544.63,54.77h-1.06v60.12c0,.18,.36,.33,1.06,.45V54.77Z"/><path class="cls-3" d="M657.68,67.09v-13.16c0-8.75-2.16-15.63-6.42-20.47-4.46-5.05-11.64-7.61-21.36-7.61-8.88,0-15.81,1.15-21.19,3.5l-.2,.09-.2,.1c-1.95,1.03-5.23,3.73-5.23,10.16,0,3.38,1.19,7.25,3.63,11.81-1.83,1.01-3.39,2.17-4.7,3.45-1.93,1.87-3.33,3.97-4.35,6.14,0,.21,.01,.41,.01,.63,0,1.78-.09,3.46-.23,5.09h-.12c-.22,3.98-.84,7.56-1.84,10.75,.36,2.33,1,4.54,1.94,6.65,1.27,2.86,3.07,5.51,5.4,7.93,5.16,5.36,11.58,8.08,19.09,8.08,6.66,0,12.22-1.48,16.63-4.41,3.65,2.93,8.27,4.41,13.73,4.41,2.71,0,7.75-.95,11.04-7.34,.98-1.91,1.7-3.87,2.16-5.84-3.9-5.35-6.15-11.94-6.7-19.67-.36-.13-.72-.23-1.1-.31Zm3.46,16.48c0,2.8-.7,5.56-2.1,8.28-1.4,2.72-3.3,4.08-5.7,4.08-4.32,0-7.8-1.16-10.44-3.48-1.13-.9-2-1.99-2.64-3.25-.05-.07-.1-.14-.15-.21-3.68,4.62-9.39,6.93-17.14,6.93-5.84,0-10.76-2.08-14.76-6.24-1.35-1.4-2.44-2.89-3.34-4.46-2.47-3.52-3.73-7.51-3.73-11.98,0-6.78,2.13-11.78,6.35-15.04,3.89-3.61,9.91-5.42,18.11-5.42h5.54v-.3c0-1.03-.08-1.88-.25-2.55-.79-.46-2.27-.69-4.44-.69-3.04,0-7.36,.64-12.96,1.92-.33-.59-.63-1.16-.91-1.71-.05,.01-.1,.02-.15,.03-2.24-4-3.36-7.26-3.36-9.78s.68-4.14,2.04-4.86c.01,0,.03-.01,.04-.02,.28-.37,.62-.67,1.02-.88,4.56-2,10.82-3,18.78-3s13.58,1.86,16.86,5.58c2.91,3.3,4.52,8.01,4.85,14.11h.18c.09,1.08,.14,2.19,.14,3.36v12.83h-.26v6.06h3.02c1.36,0,2.42,.8,3.18,2.4,.03,.07,.05,.15,.08,.22,.37,.37,.69,.86,.98,1.46,.76,1.6,1.14,3.8,1.14,6.6Z"/><path class="cls-3" d="M623.46,75.57s.01,.02,.02,.02c.96,.92,2.18,1.38,3.66,1.38s2.82-.6,4.02-1.8v-7.56h-2.3c-3.84,0-5.76,1.88-5.76,5.64,0,.88,.12,1.65,.36,2.32Z"/><path class="cls-3" d="M627.14,76.97c-1.48,0-2.7-.46-3.66-1.38,0,0-.01-.02-.02-.02,.24,.67,.6,1.24,1.08,1.7,.96,.92,2.18,1.38,3.66,1.38s2.82-.6,4.02-1.8v-9.24h-1.06v7.56c-1.2,1.2-2.54,1.8-4.02,1.8Z"/><path class="cls-3" d="M603.53,66.83h-.27c.51-1.89,1.27-3.56,2.26-5.04h-.87c.77-1.35,1.72-2.53,2.85-3.58-4.22,3.25-6.35,8.26-6.35,15.04,0,4.47,1.25,8.45,3.73,11.98-1.76-3.1-2.66-6.53-2.66-10.3,0-3.06,.45-5.75,1.31-8.1Z"/><path class="cls-3" d="M610.23,40.02c-.05-.42-.09-.82-.09-1.21,0-1.78,.34-3.1,1.02-3.98-.01,0-.03,.01-.04,.02-1.36,.72-2.04,2.34-2.04,4.86s1.12,5.78,3.36,9.78c.05-.01,.1-.02,.15-.03-1.63-3.23-2.45-5.92-2.45-8.07,0-.5,.03-.95,.09-1.37Z"/><path class="cls-3" d="M631.2,50.15c-.08-.07-.18-.14-.3-.21,.17,.67,.25,1.52,.25,2.55v.3h1c-.12-1.3-.44-2.19-.96-2.64Z"/><path class="cls-3" d="M656.83,74.57c.85,0,1.58,.31,2.2,.94-.03-.07-.05-.15-.08-.22-.76-1.6-1.82-2.4-3.18-2.4h-3.02v1.68h4.08Z"/><path class="cls-3" d="M640.12,89c.05,.07,.1,.14,.15,.21-.04-.08-.09-.15-.12-.23,0,0-.02,.02-.02,.03Z"/><path class="cls-3" d="M710.68,51.84c-1.35,3.9-3.02,6.21-5.02,6.9-.32,.08-.78,.12-1.38,.12s-1.34-.48-2.22-1.44c-3.12-3.12-5.62-4.68-7.5-4.68s-3.5,.96-4.86,2.88c-.71,1-1.23,2.34-1.57,3.99-.14,1.13-.22,2.38-.22,3.76,0,1.26,.09,2.41,.24,3.47h-.43c.15,2.2,.58,4.04,1.29,5.51,1.48,1.8,3.63,2.71,6.46,2.71,3.84,0,7.04-.76,9.6-2.28,.68,0,1.28,.68,1.82,2,.86,.71,1.59,2.65,2.18,5.86,.76,4.12,1.14,6.92,1.14,8.4s-.2,2.46-.6,2.94c-4.24,2.64-10.04,3.96-17.4,3.96s-13.62-2.74-18.78-8.22c-1.36-1.44-2.54-3.03-3.54-4.75-3.51-5.1-5.27-11.55-5.27-19.37,0-9.48,2.54-17.14,7.62-22.98,1.06-1.22,2.2-2.3,3.41-3.27,4.76-4.26,10.73-6.39,17.94-6.39s12.25,1.42,15.7,4.24c.29-2,.86-3.5,1.56-4.64-4.47-3.12-10.61-4.7-18.32-4.7-10.21,0-18.56,3.64-24.81,10.82-6.03,6.94-9.09,15.99-9.09,26.92,0,1.3,.05,2.57,.14,3.81,.55,7.73,2.79,14.32,6.7,19.67,.78,1.07,1.62,2.1,2.54,3.07,6.31,6.71,14.1,10.11,23.15,10.11,8.46,0,15.38-1.64,20.57-4.87l.82-.51,.62-.75c1.78-2.14,1.99-4.89,1.99-6.78,0-1.19-.13-3.46-1.24-9.49-.56-3.03-2.05-11.09-8.84-11.09h-1.65l-1.42,.84c-1.61,.95-3.81,1.44-6.54,1.44-1.35,0-2.88,0-2.88-5.76,0-4.44,.84-5.75,.94-5.89,.02-.03,.05-.06,.07-.09,.57,.36,1.57,1.09,3.07,2.58,.85,.93,3.14,3.28,6.55,3.28,1.13,0,2.03-.1,2.85-.3l.24-.06,.24-.08c3.13-1.08,5.62-3.59,7.52-7.61-1.53-.68-2.62-1.86-3.39-3.27Z"/><path class="cls-3" d="M665.82,61.79h-.1c.16-9.06,2.69-16.43,7.6-22.08,.74-.85,1.53-1.64,2.34-2.37-1.21,.96-2.34,2.05-3.41,3.27-5.08,5.84-7.62,13.5-7.62,22.98,0,7.82,1.76,14.27,5.27,19.37-2.8-4.81-4.2-10.7-4.2-17.69,0-1.19,.04-2.35,.12-3.48Z"/><path class="cls-3" d="M696.54,76.73c3.84,0,7.04-.76,9.6-2.28,.26,0,.51,.12,.76,.32-.54-1.31-1.14-2-1.82-2-2.56,1.52-5.76,2.28-9.6,2.28-2.84,0-4.99-.91-6.46-2.71,1.41,2.92,3.91,4.39,7.53,4.39Z"/><path class="cls-3" d="M753.92,27.05h-4.32v-5.04c0-1.78-.72-6.07-7.42-7.33-2.08-.39-4.93-.58-8.72-.58-4.83,0-16.14,0-16.14,8.4v4.56h-.36c-1.12,0-4.14,.33-6.1,3.5-.7,1.14-1.27,2.65-1.56,4.64,.7,.57,1.33,1.19,1.88,1.88,.72,.88,1.08,2.18,1.08,3.9,0,.44-.02,.91-.07,1.41,.04,.37,.07,.76,.07,1.17,0,1.72-.32,3.82-.96,6.3-.2,.71-.41,1.36-.62,1.98,.77,1.41,1.86,2.6,3.39,3.27,.89,.39,1.92,.62,3.13,.62h.12v36.48c0,1.44,0,5.81,8.23,6.88,2.2,.29,5.32,.51,9.53,.68h.24c7.16,0,16.08,0,16.08-7.44V55.85h2.52c8.04,0,8.04-10.46,8.04-14.4s0-14.4-8.04-14.4Zm3.1,16.08c0,5.6-.68,8.4-2.04,8.4h-8.26v15.3h-.26v27.18c0,.96-3.36,1.44-10.08,1.44-8-.32-12-.84-12-1.56v-1.09c-.7-.18-1.06-.37-1.06-.59V51.41h-5.06c-.76,0-1.34-.63-1.74-1.88-1.15-.71-1.72-3.4-1.72-8.08,0-1.44,.14-3.2,.42-5.28,.27-2,.82-3.03,1.65-3.11,.3-.6,.68-.91,1.16-.91h5.3v-9.66c0-.54,.4-.99,1.17-1.35,.6-1.3,3.94-1.95,10.03-1.95,6.76,0,10.14,.64,10.14,1.92v7.68l.12,3.36h10.2c1.36,0,2.04,2.8,2.04,8.4,0,.45,0,.88-.01,1.29,0,.41,.01,.84,.01,1.29Z"/><path class="cls-3" d="M724.38,21.59c0-.16,.04-.31,.11-.45-.77,.36-1.17,.81-1.17,1.35v9.66h1.06v-10.56Z"/><path class="cls-3" d="M724.38,51.41h-1.06v40.8c0,.21,.36,.41,1.06,.59V51.41Z"/><path class="cls-3" d="M715.87,43.13c0-.34,0-.7,.02-1.07-.01-.48-.02-.98-.02-1.51,0-1.44,.14-3.2,.42-5.28,.13-.96,.32-1.69,.58-2.21-.83,.07-1.38,1.1-1.65,3.11-.28,2.08-.42,3.84-.42,5.28,0,4.68,.58,7.37,1.72,8.08-.44-1.38-.66-3.51-.66-6.4Z"/><path class="cls-4" d="M433.63,28.79h-8.04v2.58h8.04c1.36,0,2.28-1.72,2.76-5.16,.32-1.68,.48-3.4,.48-5.16,0-.43-.01-.86-.03-1.29-.06,1.31-.21,2.6-.45,3.87-.48,3.44-1.4,5.16-2.76,5.16Z"/><path class="cls-4" d="M435.04,74.51c-.32-.27-.67-.42-1.05-.42h-8.4v-7.26h-23.5v-5.04h-.26v12.3h-8.28c-1.36,0-2.28,1.72-2.76,5.16-.32,1.68-.48,3.4-.48,5.16s.16,3.48,.48,5.16c.18,1.28,.42,2.31,.72,3.12,.51,1.36,1.19,2.04,2.04,2.04h40.44c1.36,0,2.32-1.72,2.88-5.16,.32-1.68,.48-3.4,.48-5.16s-.16-3.48-.48-5.16c-.4-2.47-1.02-4.04-1.83-4.74Z"/><path class="cls-4" d="M401.83,28.79h-8.52c-1.36,0-2.32-1.72-2.88-5.16-.18-1.27-.27-2.56-.32-3.87-.01,.43-.04,.85-.04,1.29,0,1.76,.12,3.48,.36,5.16,.2,1.25,.46,2.26,.77,3.06,.54,1.4,1.24,2.1,2.11,2.1h8.52v-2.58Z"/><path class="cls-4" d="M448.75,53.04h-2.74c-1.42,0-2.45-.81-3.11-2.4h.25c-.74-1.1-1.18-2.84-1.31-5.22-.02,.32-.05,.64-.05,.96,0,2.5,.27,4.43,.82,5.8,.65,1.65,1.7,2.48,3.14,2.48h3v-1.61Z"/><path class="cls-4" d="M508.88,66.83v-5.04h-.26v32.1c0,.72,3.42,1.08,10.26,1.08s10.26-.28,10.26-.84v-27.3h-20.26Z"/><path class="cls-4" d="M449,66.83v-5.04h-.26v32.1c0,.88,3.42,1.32,10.26,1.32s10.26-.4,10.26-1.2v-27.18h-20.26Z"/><path class="cls-4" d="M503.26,50.64h2.78c-.41-.15-.86-.25-1.37-.25-.43,0-.9,.09-1.41,.25Z"/><path class="cls-4" d="M478.88,66.83v-5.04h-.26v32.1c0,.72,3.42,1.08,10.26,1.08s10.26-.28,10.26-.84v-27.3h-20.26Z"/><path class="cls-4" d="M478.63,58.97v-2.58c0-.9-.08-1.69-.21-2.39-.59-1.75-1.75-2.64-3.49-2.64-1.36,0-3.16,.88-5.4,2.64v1.42c2.12-1.62,3.84-2.45,5.15-2.45,.98,0,1.77,.28,2.39,.83,1.05,.93,1.57,2.66,1.57,5.17Z"/><path class="cls-4" d="M508.63,58.97v-2.58c0-.9-.08-1.69-.21-2.39-.59-1.75-1.75-2.64-3.49-2.64-1.44,0-3.28,.88-5.52,2.64v1.42c2.12-1.62,3.88-2.45,5.27-2.45,.98,0,1.77,.28,2.39,.83,1.05,.93,1.57,2.66,1.57,5.17Z"/><path class="cls-4" d="M473.32,50.64h2.72c-.41-.15-.86-.25-1.37-.25-.41,0-.86,.09-1.35,.25Z"/><path class="cls-4" d="M544.63,53.16h-3.82c-1.32,0-2.35-.85-3.1-2.52h.27c-.59-.87-1.05-2.11-1.38-3.73-.15-.7-.25-1.54-.3-2.48-.02,.25-.06,.51-.06,.74,0,1.76,.12,3.2,.36,4.32,.21,1.05,.49,1.92,.81,2.66,.76,1.73,1.8,2.62,3.15,2.62h4.08v-1.61Z"/><path class="cls-4" d="M576.43,66.83c.09-1.1,.13-2.29,.13-3.59,0-.5-.02-.98-.04-1.45h-.23c-.02-1.61-.17-3.02-.44-4.23-.93-3.01-2.77-4.52-5.53-4.52-1.36,0-2.68,.44-3.96,1.32v1.46c1.2-.77,2.43-1.17,3.7-1.17,1.7,0,3.05,.58,4.05,1.71,1.45,1.64,2.19,4.47,2.19,8.49,0,8.08-1.64,12.28-4.92,12.6h-1.98c-.84,0-1.94-.08-3.3-.24v-10.38h-21.23v-5.04h-.26v54.78c0,.56,3.42,.84,10.26,.84s10.26-.28,10.26-.84v-21.84c2.56,.32,5.4,.48,8.52,.48,6.88,0,12.56-2.78,17.04-8.34,2.09-2.59,3.67-5.7,4.78-9.28,.99-3.2,1.62-6.77,1.84-10.75h-20.9Z"/><path class="cls-4" d="M656.83,74.57h-4.08v-7.74h-49.21c-.86,2.34-1.31,5.03-1.31,8.1,0,3.77,.9,7.2,2.66,10.3,.89,1.57,1.99,3.06,3.34,4.46,4,4.16,8.92,6.24,14.76,6.24,7.74,0,13.45-2.31,17.14-6.93,0,0,.02-.02,.02-.03,.04,.08,.09,.15,.12,.23,.63,1.26,1.51,2.35,2.64,3.25,2.64,2.32,6.12,3.48,10.44,3.48,2.4,0,4.3-1.36,5.7-4.08,1.4-2.72,2.1-5.48,2.1-8.28s-.38-5-1.14-6.6c-.28-.6-.61-1.08-.98-1.46-.62-.63-1.35-.94-2.2-.94Zm-27.96-6.96h3.36v9.24c-1.2,1.2-2.54,1.8-4.02,1.8s-2.7-.46-3.66-1.38c-.48-.46-.84-1.03-1.08-1.7-.24-.67-.36-1.44-.36-2.32,0-3.76,1.92-5.64,5.76-5.64Z"/><path class="cls-4" d="M632.16,52.79h.06v-1.2c0-2.08-.34-3.42-1.02-4.02-.68-.6-2.26-.9-4.74-.9-3.04,0-7.36,.64-12.96,1.92-1.9-3.39-2.98-6.25-3.27-8.57-.05,.43-.09,.88-.09,1.37,0,2.15,.82,4.84,2.45,8.07,.28,.56,.58,1.12,.91,1.71,5.6-1.28,9.92-1.92,12.96-1.92,2.17,0,3.65,.23,4.44,.69,.11,.07,.21,.14,.3,.21,.51,.46,.83,1.34,.96,2.64Z"/><path class="cls-4" d="M694.57,50.15c-.77,0-1.49,.17-2.17,.49h4.15c-.72-.31-1.38-.49-1.98-.49Z"/><path class="cls-4" d="M666.07,66.83c-.07-1.03-.11-2.09-.11-3.17,0-.63,.01-1.25,.04-1.87h-.17c-.08,1.13-.12,2.29-.12,3.48,0,6.98,1.4,12.87,4.2,17.69,1,1.72,2.18,3.31,3.54,4.75,5.16,5.48,11.42,8.22,18.78,8.22s13.16-1.32,17.4-3.96c.4-.48,.6-1.46,.6-2.94s-.38-4.28-1.14-8.4c-.59-3.21-1.32-5.16-2.18-5.86-.24-.2-.49-.32-.76-.32-2.56,1.52-5.76,2.28-9.6,2.28-3.61,0-6.12-1.47-7.53-4.39-.71-1.47-1.13-3.31-1.29-5.51h-21.67Z"/><path class="cls-4" d="M710.17,50.64h.62c-1.32,3.64-2.94,5.82-4.86,6.48-.32,.08-.78,.12-1.38,.12s-1.34-.48-2.22-1.44c-3.12-3.12-5.62-4.68-7.5-4.68s-3.5,.96-4.86,2.88c-.93,1.31-1.53,3.18-1.82,5.61,.34-1.66,.86-2.99,1.57-3.99,1.36-1.92,2.98-2.88,4.86-2.88s4.38,1.56,7.5,4.68c.88,.96,1.62,1.44,2.22,1.44s1.06-.04,1.38-.12c2-.69,3.67-2.99,5.02-6.9,.22-.62,.42-1.28,.62-1.98,.64-2.48,.96-4.58,.96-6.3,0-.42-.02-.81-.07-1.17-.12,1.42-.42,3.05-.89,4.89-.35,1.25-.73,2.37-1.14,3.37Z"/><path class="cls-4" d="M754.98,48.95h-8.52v1.69h.26v.89h8.26c1.36,0,2.04-2.8,2.04-8.4,0-.45,0-.88-.01-1.29-.1,4.74-.78,7.11-2.03,7.11Z"/><path class="cls-4" d="M724.64,66.83v-5.04h-.26v32.1c0,.72,4,1.24,12,1.56,6.72,0,10.08-.48,10.08-1.44v-27.18h-21.82Z"/><path class="cls-4" d="M724.38,48.83h-6.12c-1.45,0-2.24-2.26-2.37-6.77-.02,.37-.02,.73-.02,1.07,0,2.89,.22,5.02,.66,6.4,.4,1.25,.98,1.88,1.74,1.88h6.12v-2.58Z"/><path class="cls-6" d="M390.07,18.47c0,.44,.03,.86,.04,1.29,.04,1.31,.13,2.61,.32,3.87,.56,3.44,1.52,5.16,2.88,5.16h8.52V61.79h.26v-11.15h23.5V28.79h8.04c1.36,0,2.28-1.72,2.76-5.16,.24-1.27,.39-2.56,.45-3.87,.02-.43,.03-.86,.03-1.29,0-1.76-.16-3.48-.48-5.16-.48-3.44-1.4-5.16-2.76-5.16h-40.32c-.59,0-1.09,.34-1.53,.98-.58,.84-1.03,2.23-1.35,4.18-.24,1.68-.36,3.4-.36,5.16Z"/><path class="cls-6" d="M443.23,36.23c-.96,2.56-1.44,5.08-1.44,7.56,0,.57,.02,1.11,.05,1.62,.13,2.38,.57,4.12,1.31,5.22h30.17c.49-.16,.94-.25,1.35-.25,.51,0,.96,.1,1.37,.25h27.22c.5-.16,.98-.25,1.41-.25,.51,0,.96,.1,1.37,.25h22.91c-1.16-13.11-7.68-19.69-19.59-19.69-6.08,0-11.28,1.88-15.6,5.64-3.68-3.76-8.54-5.64-14.58-5.64s-11.54,2.2-16.5,6.6c-.56-1.36-2.18-2.8-4.86-4.32-2.68-1.52-5.46-2.28-8.34-2.28-1.69,0-3.09,.62-4.23,1.83-.81,.85-1.48,1.99-2.01,3.45Z"/><rect class="cls-6" x="448.75" y="53.04" width=".26" height="8.75"/><path class="cls-6" d="M478.63,61.79h.26v-4.43c0-1.35-.16-2.46-.47-3.36,.13,.7,.21,1.49,.21,2.39v5.4Z"/><path class="cls-6" d="M508.63,61.79h.26v-4.43c0-1.35-.16-2.46-.47-3.36,.13,.7,.21,1.49,.21,2.39v5.4Z"/><path class="cls-6" d="M536.23,42.59c0,.66,.02,1.26,.06,1.84,.06,.95,.15,1.79,.3,2.48,.33,1.62,.8,2.85,1.38,3.73h58.54c-1.04-5.15-2.98-9.25-5.8-12.31-4.48-4.84-9.84-7.26-16.08-7.26s-12.04,2.08-17.4,6.24c0-.16-.38-.7-1.14-1.62-.76-.92-2.12-1.92-4.08-3-1.96-1.08-4.1-1.62-6.42-1.62s-4.14,.75-5.61,2.21c-.81,.81-1.5,1.82-2.07,3.07-1.12,2.4-1.68,4.48-1.68,6.24Z"/><path class="cls-6" d="M576.52,61.79c-.08-1.64-.3-3.05-.67-4.23,.27,1.21,.42,2.62,.44,4.23h.23Z"/><rect class="cls-6" x="544.63" y="53.16" width=".26" height="8.63"/><path class="cls-6" d="M604.66,61.79h.87c3.59-5.34,10.36-8.03,20.35-8.03h6.6v-1.2c0-.73-.04-1.37-.13-1.92h20.33c-.33-6.1-1.94-10.81-4.85-14.11-3.28-3.72-8.9-5.58-16.86-5.58s-14.22,1-18.78,3c-.4,.21-.74,.51-1.02,.88-.68,.88-1.02,2.2-1.02,3.98,0,.38,.03,.79,.09,1.21,.29,2.33,1.37,5.18,3.27,8.57,5.6-1.28,9.92-1.92,12.96-1.92,2.48,0,4.06,.3,4.74,.9,.68,.6,1.02,1.94,1.02,4.02v1.2h-6.6c-8.2,0-14.23,1.82-18.11,5.42-1.13,1.04-2.08,2.23-2.85,3.58Z"/><path class="cls-6" d="M675.67,37.35c-.82,.73-1.6,1.51-2.34,2.37-4.92,5.65-7.45,13.02-7.6,22.08h.28c.15-4.07,.79-7.79,1.93-11.15h24.47c.68-.32,1.4-.49,2.17-.49,.59,0,1.26,.17,1.98,.49h13.62c.41-.99,.78-2.11,1.14-3.37,.48-1.84,.77-3.47,.89-4.89,.04-.49,.07-.96,.07-1.41,0-1.72-.36-3.02-1.08-3.9-.55-.69-1.18-1.31-1.88-1.88-3.45-2.82-8.68-4.24-15.7-4.24s-13.18,2.14-17.94,6.39Z"/><path class="cls-6" d="M754.98,32.15h-10.2l-.12-3.36v-7.68c0-1.28-3.38-1.92-10.14-1.92-6.09,0-9.43,.65-10.03,1.95-.07,.14-.11,.29-.11,.45v10.56h-6.36c-.47,0-.86,.31-1.16,.91-.26,.52-.45,1.25-.58,2.21-.28,2.08-.42,3.84-.42,5.28,0,.53,0,1.03,.02,1.51,.14,4.51,.93,6.77,2.37,6.77h6.12v12.96h.26v-11.15h21.82v-1.69h8.52c1.25,0,1.92-2.37,2.03-7.11,0-.41,.01-.84,.01-1.29,0-5.6-.68-8.4-2.04-8.4Z"/><path class="cls-8" d="M629.12,66c-1.47,0-2.66,.28-3.56,.83h6.92v-.83h-3.36Z"/><rect class="cls-8" x="402.08" y="50.64" width="23.76" height="16.19"/><path class="cls-8" d="M442.89,50.64c.66,1.59,1.69,2.4,3.11,2.4h3v13.79h20.52v-12.83c2.24-1.76,4.04-2.64,5.4-2.64,1.75,0,2.9,.89,3.49,2.64,.3,.9,.47,2,.47,3.36v9.47h20.52v-12.83c2.24-1.76,4.08-2.64,5.52-2.64,1.75,0,2.9,.89,3.49,2.64,.3,.9,.47,2,.47,3.36v9.47h20.52v-10.79c0-1.92-.1-3.71-.29-5.4h-86.22Z"/><path class="cls-8" d="M537.7,50.64c.75,1.67,1.78,2.52,3.1,2.52h4.08v13.67h21.48v-12.47c1.28-.88,2.6-1.32,3.96-1.32,2.77,0,4.61,1.51,5.53,4.52,.36,1.18,.59,2.59,.67,4.23,.02,.47,.04,.94,.04,1.45,0,1.3-.05,2.49-.13,3.59h21.02c.14-1.64,.23-3.32,.23-5.09,0-.21-.01-.41-.01-.63-.04-3.89-.41-7.38-1.12-10.47h-58.85Z"/><path class="cls-8" d="M632.35,50.64c.08,.55,.13,1.19,.13,1.92v1.2h-6.6c-9.99,0-16.76,2.69-20.35,8.03-.99,1.48-1.76,3.15-2.26,5.04h22.29c.91-.55,2.09-.83,3.56-.83h3.36v.83h20.52v-12.83c0-1.17-.06-2.28-.14-3.36h-20.51Z"/><path class="cls-8" d="M694.82,51.12c1.88,0,4.38,1.56,7.5,4.68,.88,.96,1.62,1.44,2.22,1.44s1.06-.04,1.38-.12c1.93-.66,3.54-2.84,4.86-6.48h-42.86c-1.14,3.36-1.78,7.08-1.93,11.15-.02,.61-.04,1.24-.04,1.87,0,1.09,.04,2.14,.11,3.17h22.09c-.15-1.06-.24-2.21-.24-3.47,0-1.38,.08-2.62,.22-3.76,.3-2.42,.9-4.3,1.82-5.61,1.36-1.92,2.98-2.88,4.86-2.88Z"/><rect class="cls-8" x="724.64" y="50.64" width="22.08" height="16.19"/></g><g><path class="cls-1" d="M155.04,64.72l.55-.39c-2.23-2.82-3.59-5.81-4.38-8.72v13.57c1.15-1.98,2.4-3.44,3.83-4.46Z"/><path class="cls-1" d="M197.91,53.08c.53,.39,1.08,.8,1.64,1.24,1.78,1.41,3.26,2.99,4.46,4.73v-14.83c-.43,.89-.93,1.81-1.51,2.78-1.89,3.16-3.23,4.98-4.59,6.08Z"/><path class="cls-1" d="M118.29,28.13c-.13-.18-.23-.37-.34-.56l-.35,1.94c.17-.5,.39-.96,.69-1.38Z"/><path class="cls-3" d="M117.96,27.57c-.46-.85-.7-1.83-.7-2.97V7.32c0-1.77,.57-3.1,1.47-4.1-2.37-1.84-6.38-2.38-15.63-2.38-2.35,0-5.32,.17-9.06,.5-2.94,.27-9.83,.89-10.88,6.71l-.02,.13-2.68,19.66-5.07-20.93-.11-.3c-1.87-5.22-8.17-5.65-15.01-5.65s-13.24,.46-15.05,5.91l-.07,.22-4.81,19.33-2.07-17.74-.03-.24C37.15,1.62,28.86,1.08,18.13,1.08,6.57,1.08,3.43,1.72,1.3,4.51,.21,5.94-.22,7.72,.1,9.46L12.47,89.31l.04,.19c1.41,6.38,9.66,7.25,13.63,7.67l.17,.02,8,.38h.14c2.88,0,5.81-.13,8.69-.38l.19-.02c3.9-.47,11.98-1.45,13.49-7.6l2.81-10.4,2.58,10.41c1.68,7.37,11.94,7.99,21.44,7.99,2.92,0,6.55-.29,11.1-.89,3.36-.44,10.34-1.36,11.85-7.04l.06-.23,10.6-58.11c.03-.64,.14-1.23,.32-1.78l.35-1.94Zm-1.56-17.37l-14.52,79.56c-.32,1.2-2.6,2.08-6.84,2.64-4.24,.56-7.68,.84-10.32,.84-9.92,0-15.12-1.12-15.6-3.36l-.1-.4c-.53-.38-.86-.8-.96-1.28l-7.44-30.07-8.54,31.63c-.32,1.44-3.12,2.48-8.4,3.12-2.72,.24-5.44,.36-8.16,.36l-7.68-.36c-5.28-.56-8.08-1.56-8.4-3l-.08-.48c-.56-.36-.89-.76-.99-1.2L6.01,8.4c-.08-.28,.29-.52,1.09-.71l-.03-.19c-.24-.88,3.8-1.32,12.12-1.32,9.2,0,13.92,.76,14.16,2.28l4.69,40.33h.14l.87,7.5L50.89,8.76c.12-.35,.48-.65,1.06-.9,.4-1.2,3.52-1.8,9.36-1.8s8.96,.56,9.36,1.68l9.95,41.05h.02l1.91,7.9,6.49-47.56c.07-.37,.44-.68,1.08-.95,.22-.85,2.04-1.44,5.5-1.75,3.52-.32,6.36-.48,8.52-.48,8.4,0,12.48,.56,12.24,1.68l-.36,1.99c.28,.18,.41,.37,.36,.59Z"/><path class="cls-3" d="M60.62,58.13l7.44,30.07c.1,.48,.43,.9,.96,1.28l-8.06-32.6-.34,1.25Z"/><path class="cls-3" d="M51.96,7.86s0,0,0,0c-.59,.25-.95,.55-1.06,.9l-11.83,47.53,.27,2.3L51.96,7.86Z"/><path class="cls-3" d="M90.12,8.22s.02-.03,.02-.05c-.65,.27-1.02,.58-1.08,.95l-6.49,47.56,.6,2.48,6.95-50.95Z"/><polygon class="cls-3" points="39.49 59.95 39.49 59.94 39.49 59.94 39.49 59.95"/><path class="cls-3" d="M7.41,9.63l-.3-1.94c-.8,.19-1.17,.43-1.09,.71l12.36,79.8c.1,.44,.43,.84,.99,1.2L7.08,10.08c-.05-.17,.07-.32,.33-.45Z"/><polygon class="cls-3" points="83.41 59.94 83.35 59.94 83.39 60.09 83.41 59.94"/><path class="cls-3" d="M149.73,72.12c.48-1.1,.97-2.07,1.48-2.94v-13.57c-.7-2.57-.96-5.08-.96-7.37,0-2.52,.33-4.89,.96-7.08v-9.6c0-1.4-.35-2.57-1.04-3.53,.69-.96,1.04-2.15,1.04-3.55V6.84c0-3.97-2.81-6.16-8.35-6.53-1.98-.13-4.8-.19-8.63-.19s-6.82,.11-8.89,.34c-2.37,.26-5.02,.98-6.62,2.76-.9,1-1.47,2.33-1.47,4.1V24.6c0,1.14,.24,2.12,.7,2.97,.1,.19,.21,.39,.34,.56-.3,.42-.52,.88-.69,1.38-.19,.54-.29,1.14-.32,1.78,0,.13-.03,.26-.03,.39v58.92c0,3.97,2.79,6.19,8.29,6.61,2,.15,4.84,.23,8.69,.23s6.74-.09,8.76-.26c6.8-.59,8.22-3.97,8.22-6.7v-.06c-2.99-3.18-3.6-6.61-3.6-8.82,0-3.06,.71-6.25,2.12-9.48ZM123.25,7.32c0-.25,.36-.46,1.06-.63v-.27c0-.8,3.66-1.2,10.98-1.2s10.98,.24,10.98,.72V26.16c0,.56-3.66,.84-10.98,.84s-10.98-.24-10.98-.72v-1.3c-.71-.1-1.06-.23-1.06-.38V7.32Zm23.28,57.66h-.26v27.18c0,.64-3.66,.96-10.98,.96s-10.98-.28-10.98-.84v-1.24c-.71-.12-1.06-.27-1.06-.44V31.68c0-.17,.36-.32,1.06-.44v-.46c0-.56,3.66-.84,10.98-.84s10.98,.24,10.98,.72v18.13h.26v16.19Z"/><path class="cls-3" d="M124.31,31.24c-.71,.12-1.06,.27-1.06,.44v58.92c0,.17,.36,.32,1.06,.44V31.24Z"/><path class="cls-3" d="M124.31,24.98V6.69c-.71,.17-1.06,.38-1.06,.63V24.6c0,.15,.36,.28,1.06,.38Z"/><path class="cls-3" d="M199.55,54.31c-.56-.44-1.11-.85-1.64-1.24,1.36-1.1,2.71-2.92,4.59-6.08,.58-.97,1.08-1.89,1.51-2.78v-12.83c-1.53-1.97-4.18-3.85-8.63-5.21-4.75-1.45-10.51-2.18-17.11-2.18-7.3,0-13.71,1.96-19.05,5.82-3.98,2.87-6.68,6.72-8.01,11.34-.63,2.2-.96,4.56-.96,7.08,0,2.28,.26,4.8,.96,7.37,.79,2.91,2.16,5.9,4.38,8.72l-.55,.39c-1.43,1.02-2.68,2.48-3.83,4.46-.51,.88-1,1.85-1.48,2.94-1.41,3.23-2.12,6.42-2.12,9.48,0,2.21,.61,5.63,3.6,8.82,1.59,1.69,3.84,3.32,7.07,4.65,5.35,2.21,11.33,3.34,17.77,3.34,10.09,0,17.93-2.54,23.3-7.56,1.87-1.75,3.42-3.69,4.66-5.8v-26c-1.2-1.73-2.69-3.32-4.46-4.73Zm-3.23,33.83c-4.24,3.96-10.64,5.94-19.2,5.94-5.68,0-10.84-.96-15.48-2.88-3.3-1.37-5.41-3.11-6.36-5.2-1.1-1.3-1.66-2.76-1.66-4.4,0-2.24,.54-4.6,1.62-7.08,1.08-2.48,2.18-4.12,3.3-4.92,6.48,3.92,11.6,5.88,15.36,5.88,2.39,0,3.59-.83,3.6-2.5-1.01-.88-2.72-1.89-5.17-3.02-5.97-2.44-10.14-5.8-12.55-10.09-2.34-3.27-3.51-7.14-3.51-11.63,0-5.62,1.97-9.97,5.87-13.06,.52-.49,1.07-.96,1.67-1.4,4.32-3.12,9.5-4.68,15.54-4.68s11.16,.64,15.36,1.92c4.2,1.28,6.3,2.96,6.3,5.04,0,.48-.07,1.01-.2,1.57,.12,.33,.2,.66,.2,1.01,0,1.76-.86,4.08-2.58,6.96-1.72,2.88-2.9,4.44-3.54,4.68-3.44-1.92-7.16-2.88-11.16-2.88-1.47,0-2.43,.36-2.9,1.07,.21,.4,.51,.76,.92,1.09,.84,.68,2.38,1.52,4.62,2.52,2.24,1,4.1,1.9,5.58,2.7,1.48,.8,3.14,1.92,4.98,3.36,.71,.56,1.34,1.17,1.92,1.8h-.73c1.62,1.49,2.84,3.16,3.64,5.04h-1.07c1.32,2.23,2,4.76,2,7.62,0,6.4-2.12,11.58-6.36,15.54Z"/><path class="cls-3" d="M156.29,76.2c1.08-2.48,2.18-4.12,3.3-4.92,6.48,3.92,11.6,5.88,15.36,5.88,2.4,0,3.6-.84,3.6-2.52,0-.49-.37-1.05-1.07-1.66-.01,1.66-1.21,2.5-3.6,2.5-3.76,0-8.88-1.96-15.36-5.88-1.12,.8-2.22,2.44-3.3,4.92-1.08,2.48-1.62,4.84-1.62,7.08,0,1.64,.56,3.1,1.66,4.4-.39-.85-.6-1.75-.6-2.72,0-2.24,.54-4.6,1.62-7.08Z"/><path class="cls-3" d="M157.37,48.79c-.03-.48-.05-.95-.05-1.45,0-5.09,1.61-9.14,4.81-12.16-3.9,3.1-5.87,7.44-5.87,13.06,0,4.49,1.18,8.36,3.51,11.63-1.62-2.9-2.45-6.21-2.45-9.95,0-.39,.03-.76,.05-1.13Z"/><path class="cls-3" d="M258.71,30.57c-4.65-4.28-10.86-6.45-18.46-6.45-1.23,0-2.62,.13-4.2,.4V8.16c0-1.39-.52-6.04-7.26-7.49-2.11-.45-5-.67-8.82-.67-1.89,0-4.12,.13-6.82,.39-6.07,.59-9.14,3-9.14,7.17V89.76c0,7.68,9.64,7.68,16.02,7.68,3.59,0,6.26-.1,8.16-.3,3.91-.42,5.92-1.85,6.92-3.41,1.24,1.67,3.54,2.7,6.86,3.08,1.93,.22,4.68,.39,8.39,.51h.2c3.38,0,5.9-.1,7.71-.31,2.86-.33,7.65-1.65,7.65-6.77V53.04c0-10.65-2.36-18-7.22-22.47Zm2.54,22.54v11.87h-.26v26.94c0,.72-3.12,1.08-9.36,1.08-7.04-.24-10.56-.64-10.56-1.2v-1.2c-.71-.15-1.06-.31-1.06-.48V54.84c0-1.39-.17-2.51-.49-3.41-.59-.52-1.35-.79-2.29-.79-1.7,0-3.65,.79-5.86,2.34v12h-.26v27.06c0,.72-3.34,1.08-10.02,1.08s-10.02-.56-10.02-1.68v-.77c-.7-.25-1.06-.55-1.06-.91V7.56c0-.3,.36-.55,1.06-.76v-.14c0-.56,1.24-.96,3.72-1.2,2.48-.24,4.56-.36,6.24-.36,6.72,0,10.08,.72,10.08,2.16V31.26c4.48-1.36,7.88-2.04,10.2-2.04,6.08,0,10.88,1.62,14.4,4.86,3.05,2.81,4.78,7.72,5.18,14.71h.19c.11,1.36,.16,2.79,.16,4.32Z"/><path class="cls-3" d="M211.07,6.8c-.7,.21-1.06,.46-1.06,.76V89.76c0,.36,.36,.67,1.06,.91V6.8Z"/><path class="cls-3" d="M241.07,56.52c0-2.49-.52-4.18-1.55-5.09,.32,.9,.49,2.02,.49,3.41v35.28c0,.18,.36,.34,1.06,.48V56.52Z"/><path class="cls-4" d="M109.31,48.79l-2.96,16.19H63.61l-1.25-5.04h-.02l-1.15-4.64-2.61,9.68H16.08l-.78-5.04h-.11L7.41,9.63c-.26,.14-.37,.29-.33,.45l12.28,79.32,.08,.48c.32,1.44,3.12,2.44,8.4,3l7.68,.36c2.72,0,5.44-.12,8.16-.36,5.28-.64,8.08-1.68,8.4-3.12l8.54-31.63,.34-1.25,8.06,32.6,.1,.4c.48,2.24,5.68,3.36,15.6,3.36,2.64,0,6.08-.28,10.32-.84,4.24-.56,6.52-1.44,6.84-2.64L116.4,10.2c.05-.22-.08-.42-.36-.59l-7.15,39.18h.43Z"/><polygon class="cls-4" points="83.41 60.19 83.45 59.94 83.41 59.94 83.39 60.09 83.41 60.19"/><path class="cls-4" d="M135.29,24.42c-7.32,0-10.98-.24-10.98-.72v2.58c0,.48,3.66,.72,10.98,.72s10.98-.28,10.98-.84v-2.58c0,.56-3.66,.84-10.98,.84Z"/><path class="cls-4" d="M124.57,64.98v-5.04h-.26v32.34c0,.56,3.66,.84,10.98,.84s10.98-.32,10.98-.96v-27.18h-21.7Z"/><path class="cls-4" d="M200.68,64.98h-34.4c-4.34-3.03-7.05-6.91-8.14-11.64-.41-1.44-.68-2.96-.77-4.56-.02,.38-.05,.74-.05,1.13,0,3.74,.83,7.05,2.45,9.95,2.41,4.29,6.58,7.66,12.55,10.09,2.46,1.13,4.17,2.14,5.17,3.02,.7,.61,1.07,1.17,1.07,1.66,0,1.68-1.2,2.52-3.6,2.52-3.76,0-8.88-1.96-15.36-5.88-1.12,.8-2.22,2.44-3.3,4.92-1.08,2.48-1.62,4.84-1.62,7.08,0,.97,.22,1.87,.6,2.72,.95,2.1,3.06,3.83,6.36,5.2,4.64,1.92,9.8,2.88,15.48,2.88,8.56,0,14.96-1.98,19.2-5.94,4.24-3.96,6.36-9.14,6.36-15.54,0-2.86-.68-5.39-2-7.62Z"/><path class="cls-4" d="M194.87,47.7c-3.44-1.92-7.16-2.88-11.16-2.88-2.16,0-3.24,.76-3.24,2.28,0,.49,.12,.95,.34,1.37,.47-.71,1.43-1.07,2.9-1.07,4,0,7.72,.96,11.16,2.88,.64-.24,1.82-1.8,3.54-4.68,1.72-2.88,2.58-5.2,2.58-6.96,0-.35-.08-.68-.2-1.01-.34,1.5-1.13,3.29-2.38,5.39-1.72,2.88-2.9,4.44-3.54,4.68Z"/><path class="cls-4" d="M234.17,48.79h5.26c-.58-.47-1.31-.73-2.2-.73-.94,0-1.96,.25-3.06,.73Z"/><path class="cls-4" d="M241.33,64.98v-5.04h-.26v31.86c0,.56,3.52,.96,10.56,1.2,6.24,0,9.36-.36,9.36-1.08v-26.94h-19.66Z"/><path class="cls-4" d="M211.33,64.98v-5.04h-.26v31.5c0,1.12,3.34,1.68,10.02,1.68s10.02-.36,10.02-1.08v-27.06h-19.78Z"/><path class="cls-4" d="M241.07,56.52v-2.58c0-.89-.08-1.67-.21-2.35-.58-1.69-1.7-2.56-3.38-2.56s-3.8,.84-6.12,2.52v1.44c2.21-1.56,4.17-2.34,5.86-2.34,.93,0,1.69,.27,2.29,.79,1.03,.91,1.55,2.6,1.55,5.09Z"/><path class="cls-6" d="M104.16,5.94c-2.16,0-5,.16-8.52,.48-3.45,.31-5.28,.9-5.5,1.75,0,.02-.02,.03-.02,.05l-6.95,50.95,.19,.78h.09l1.52-11.15h23.92l7.15-39.18,.36-1.99c.24-1.12-3.84-1.68-12.24-1.68Z"/><path class="cls-6" d="M39.33,58.59l.16,1.35h0l2.77-11.15h38.36L70.68,7.74c-.4-1.12-3.52-1.68-9.36-1.68s-8.96,.6-9.36,1.8c0,0,0,0,0,0l-12.62,50.73Z"/><path class="cls-6" d="M15.2,59.94h.11l-1.73-11.15h24.47l-4.69-40.33c-.24-1.52-4.96-2.28-14.16-2.28-8.32,0-12.36,.44-12.12,1.32l.03,.19,.3,1.94,7.79,50.31Z"/><polygon class="cls-6" points="61.2 55.3 62.35 59.94 62.37 59.94 61.21 55.27 61.2 55.3"/><path class="cls-6" d="M124.31,23.7c0,.48,3.66,.72,10.98,.72s10.98-.28,10.98-.84V5.94c0-.48-3.66-.72-10.98-.72s-10.98,.4-10.98,1.2V23.7Z"/><path class="cls-6" d="M124.31,59.94h.26v-11.15h21.7V30.66c0-.48-3.66-.72-10.98-.72s-10.98,.28-10.98,.84v29.16Z"/><path class="cls-6" d="M157.37,48.79c.1,1.6,.36,3.12,.77,4.56-.33-1.44-.52-2.96-.55-4.56h23.23c.16,.66,.55,1.24,1.17,1.74,.84,.68,2.38,1.52,4.62,2.52,2.24,1,4.1,1.9,5.58,2.7,1.48,.8,3.14,1.92,4.98,3.36,.34,.27,.63,.55,.94,.83h.73c-.58-.63-1.2-1.24-1.92-1.8-1.84-1.44-3.5-2.56-4.98-3.36-1.48-.8-3.34-1.7-5.58-2.7-2.24-1-3.78-1.84-4.62-2.52-.41-.33-.71-.69-.92-1.09-.22-.42-.34-.88-.34-1.37,0-1.52,1.08-2.28,3.24-2.28,4,0,7.72,.96,11.16,2.88,.64-.24,1.82-1.8,3.54-4.68,1.25-2.09,2.04-3.89,2.38-5.39,.13-.56,.2-1.09,.2-1.57,0-2.08-2.1-3.76-6.3-5.04-4.2-1.28-9.32-1.92-15.36-1.92s-11.22,1.56-15.54,4.68c-.6,.44-1.15,.91-1.67,1.4-3.2,3.02-4.81,7.07-4.81,12.16,0,.49,.03,.97,.05,1.45Z"/><path class="cls-6" d="M211.07,59.94h.26v-11.15h22.84c1.1-.48,2.12-.73,3.06-.73,.89,0,1.62,.25,2.2,.73h21.47c-.41-6.99-2.13-11.9-5.18-14.71-3.52-3.24-8.32-4.86-14.4-4.86-2.32,0-5.72,.68-10.2,2.04V7.26c0-1.44-3.36-2.16-10.08-2.16-1.68,0-3.76,.12-6.24,.36-2.48,.24-3.72,.64-3.72,1.2V59.94Z"/><path class="cls-6" d="M241.07,59.94h.26v-5.03c0-1.34-.16-2.44-.46-3.32,.13,.69,.21,1.46,.21,2.35v6Z"/><polygon class="cls-8" points="13.58 48.79 15.3 59.94 16.08 64.98 58.59 64.98 61.2 55.3 61.21 55.27 62.37 59.94 63.61 64.98 106.36 64.98 109.31 48.79 84.97 48.79 83.45 59.94 83.41 60.19 83.39 60.09 83.35 59.94 83.16 59.17 82.56 56.68 80.65 48.79 42.27 48.79 39.49 59.94 39.49 59.95 39.49 59.94 39.33 58.59 39.07 56.29 38.19 48.79 13.58 48.79"/><rect class="cls-8" x="124.57" y="48.79" width="21.96" height="16.19"/><path class="cls-8" d="M192.19,55.75c-1.48-.8-3.34-1.7-5.58-2.7-2.24-1-3.78-1.84-4.62-2.52-.62-.5-1.01-1.08-1.17-1.74h-23.23c.03,1.6,.22,3.12,.55,4.56,1.09,4.72,3.8,8.6,8.14,11.64h35.47c-.8-1.88-2.02-3.55-3.64-5.04-.31-.28-.6-.57-.94-.83-1.84-1.44-3.5-2.56-4.98-3.36Z"/><path class="cls-8" d="M211.33,48.79v16.19h20.04v-13.43c2.32-1.68,4.36-2.52,6.12-2.52s2.8,.87,3.38,2.56c.3,.88,.46,1.98,.46,3.32v10.07h19.92v-11.87c0-1.53-.06-2.96-.16-4.32h-49.76Z"/></g></g></g></svg>