<?xml version="1.0" encoding="UTF-8"?><svg id="Layer_2" xmlns="http://www.w3.org/2000/svg" viewBox="0 0 241.97 235.13"><defs><style>.cls-1{fill:#f6c2ff;}.cls-2{fill:#fffdeb;}.cls-3{fill:#ffd7e7;}.cls-4{fill:#fbe9ff;}.cls-5{fill:#a4f6ff;}.cls-6{fill:#c2fff6;}.cls-7{fill:#c7c2f9;}</style></defs><g id="Layer_1-2"><g><g><path class="cls-5" d="M241.97,124.89c-82.68,15.22-95.01,27.56-110.23,110.23-15.22-82.68-27.56-95.01-110.23-110.23,82.68-15.22,95.01-27.56,110.23-110.23,15.22,82.68,27.56,95.01,110.23,110.23Z"/><path class="cls-6" d="M131.73,14.66V235.13c15.22-82.68,27.56-95.01,110.23-110.23-82.68-15.22-95.01-27.56-110.23-110.23Z"/><path class="cls-7" d="M131.73,14.66V124.89h110.23c-82.68-15.22-95.01-27.56-110.23-110.23Z"/></g><g><path class="cls-1" d="M220.47,110.23c-82.68,15.22-95.01,27.56-110.23,110.23C95.01,137.79,82.68,125.45,0,110.23,82.68,95.01,95.01,82.68,110.23,0c15.22,82.68,27.56,95.01,110.23,110.23Z"/><path class="cls-4" d="M110.54,0V220.47c15.22-82.68,27.56-95.01,110.23-110.23C138.1,95.01,125.76,82.68,110.54,0Z"/><path class="cls-2" d="M0,110.23H220.47C137.79,95.01,125.45,82.68,110.23,0,95.01,82.68,82.68,95.01,0,110.23Z"/><path class="cls-3" d="M110.54,0V110.23h110.23C138.1,95.01,125.76,82.68,110.54,0Z"/></g></g></g></svg>